<svg xmlns="http://www.w3.org/2000/svg" width="512" height="512" viewBox="0 0 128 128"><path d="M64 0C28.656 0 0 28.656 0 64s28.656 64 64 64 64-28.656 64-64S99.344 0 64 0zm0 120C33.125 120 8 94.875 8 64S33.125 8 64 8s56 25.125 56 56-25.125 56-56 56zm19.797-78.625L55.516 69.656 44.203 58.344c-3.125-3.125-8.195-3.125-11.313 0-3.125 3.125-3.125 8.195 0 11.313l16.969 16.969c3.117 3.125 8.188 3.125 11.313 0L95.11 52.688c3.125-3.125 3.125-8.195 0-11.313-3.118-3.125-8.188-3.125-11.313 0z" fill="#f9c70a"/></svg>